<?xml version="1.0" encoding="utf-8"?>
<!-- Generator: Adobe Illustrator 24.0.0, SVG Export Plug-In . SVG Version: 6.00 Build 0)  -->
<svg version="1.1" id="Warstwa_1" xmlns="http://www.w3.org/2000/svg" x="0px" y="0px"
	viewBox="0 0 1048.1 1234.3" style="enable-background:new 0 0 1048.1 1234.3;" xml:space="preserve">
<style type="text/css">
	.st0{fill:#448CCB;}
	.st1{fill:#FFFFFF;}
</style>
	<g>
	<g>
		<g>
			<path class="st0" d="M627.9,699.7H419.4c-29.8,0-54.2-24.4-54.2-54.2V437c0-29.8,24.4-54.2,54.2-54.2h208.5
				c29.8,0,54.2,24.4,54.2,54.2v208.5C682.1,675.3,657.7,699.7,627.9,699.7z"/>
		</g>
		<g>
			<path class="st0" d="M620.1,347.9h-34.5V243.7c0-5.3-4.5-9.8-9.8-9.8H471.5c-5.3,0-9.8,4.5-9.8,9.8v104.2h-34.5V243.7
				c0-24.5,19.9-44.4,44.4-44.4h104.2c24.5,0,44.4,19.9,44.4,44.4V347.9z"/>
		</g>
		<path class="st1" d="M554.4,530.7c11.7-9.2,19.3-23.4,19.3-39.5c0-27.6-22.4-50.1-50.1-50.1c-27.6,0-50.1,22.4-50.1,50.1
			c0,16,7.5,30.3,19.3,39.5c-19.4,20.8-32.6,57.2-32.6,81c0,35,28.4,29.7,63.4,29.7c35,0,63.4,5.3,63.4-29.7
			C587,587.8,573.9,551.5,554.4,530.7z"/>
	</g>
		<g>
		<g>
			<path class="st0" d="M344.8,1005.4H235.4l-20.8,48.9h-38.1l95.7-216.8h37.5l94.8,216.8h-39L344.8,1005.4z M330.8,972.9
				l-40.9-96.3l-40.9,96.3H330.8z"/>
		</g>
			<g>
			<path class="st0" d="M605.6,911.6c0,48.9-31.3,77.4-85.8,77.4h-49.9v65.4h-36.5V837.5h86.4C574.3,837.5,605.6,864.5,605.6,911.6z
				 M570.6,912.5c0-28.5-18.9-42.1-52.3-42.1h-48.3v85.8h48.3C551.7,956.2,570.6,941.9,570.6,912.5z"/>
		</g>
			<g>
			<path class="st0" d="M685.2,837.5l71.5,144l71.2-144H871v216.8h-33.8l-0.3-162l-68.5,139.4h-23.8l-68.5-139.4v162h-34.4V837.5
				H685.2z"/>
		</g>
	</g>
		<g>
		<g>
			<path class="st0" d="M306.9,641.5H202.7c-14.9,0-27.1-12.2-27.1-27.1V510.1c0-14.9,12.2-27.1,27.1-27.1h104.2
				c14.9,0,27.1,12.2,27.1,27.1v104.2C334,629.3,321.8,641.5,306.9,641.5z"/>
		</g>
			<g>
			<path class="st0" d="M303.1,465.6h-17.3v-52.1c0-2.7-2.3-4.9-4.9-4.9h-52.1c-2.7,0-4.9,2.3-4.9,4.9v52.1h-17.3v-52.1
				c0-12.2,10-22.2,22.2-22.2h52.1c12.2,0,22.2,10,22.2,22.2V465.6z"/>
		</g>
			<path class="st1" d="M270.2,557c5.9-4.6,9.6-11.7,9.6-19.7c0-13.8-11.2-25-25-25c-13.8,0-25,11.2-25,25c0,8,3.8,15.2,9.6,19.7
			c-9.7,10.4-16.3,28.6-16.3,40.5c0,17.5,14.2,14.8,31.7,14.8c17.5,0,31.7,2.7,31.7-14.8C286.5,585.5,279.9,567.4,270.2,557z"/>
	</g>
		<g>
		<g>
			<path class="st0" d="M843.9,641.5H739.7c-14.9,0-27.1-12.2-27.1-27.1V510.1c0-14.9,12.2-27.1,27.1-27.1h104.2
				c14.9,0,27.1,12.2,27.1,27.1v104.2C871,629.3,858.8,641.5,843.9,641.5z"/>
		</g>
			<g>
			<path class="st0" d="M840,465.6h-17.3v-52.1c0-2.7-2.3-4.9-4.9-4.9h-52.1c-2.7,0-4.9,2.3-4.9,4.9v52.1h-17.3v-52.1
				c0-12.2,10-22.2,22.2-22.2h52.1c12.2,0,22.2,10,22.2,22.2V465.6z"/>
		</g>
			<path class="st1" d="M807.2,557c5.9-4.6,9.6-11.7,9.6-19.7c0-13.8-11.2-25-25-25c-13.8,0-25,11.2-25,25c0,8,3.8,15.2,9.6,19.7
			c-9.7,10.4-16.3,28.6-16.3,40.5c0,17.5,14.2,14.8,31.7,14.8c17.5,0,31.7,2.7,31.7-14.8C823.5,585.5,816.9,567.4,807.2,557z"/>
	</g>
</g>
</svg>
